<svg xmlns="http://www.w3.org/2000/svg" width="499.061" height="493.824" viewBox="227.439 27.182 499.061 493.824"><path fill="#28537b" d="M723.877 274.102c0 136.36-110.55 246.904-246.916 246.904-136.344 0-246.9-110.55-246.9-246.904 0-136.37 110.555-246.92 246.9-246.92 136.365 0 246.916 110.55 246.916 246.92zM476.99 49.884c-123.855 0-224.224 100.386-224.224 224.218 0 123.816 100.37 224.202 224.224 224.202 123.804 0 224.19-100.386 224.19-224.202-.006-123.832-100.387-224.218-224.19-224.218zm-73.298 69.132c-35.672 0-64.602 28.93-64.602 64.574 0 35.672 28.93 64.602 64.602 64.602 35.644 0 64.58-28.93 64.58-64.602 0-35.645-28.936-64.574-64.58-64.574zm134.198 188.87c-16.19 0-29.31 13.115-29.31 29.288s13.127 29.288 29.31 29.288c16.174 0 29.277-13.12 29.277-29.288 0-16.173-13.104-29.288-29.277-29.288zm70.677-147.705c-23.273 0-42.123 18.877-42.123 42.117 0 23.263 18.85 42.124 42.123 42.124 23.24 0 42.123-18.86 42.123-42.124.006-23.24-18.877-42.117-42.123-42.117zM330.297 298.4c-12.6 0-22.803 10.226-22.803 22.81 0 12.59 10.203 22.8 22.803 22.8 12.628 0 22.826-10.22 22.826-22.8 0-12.583-10.198-22.81-22.826-22.81zm124.594 80.11c-27.3 0-49.46 22.153-49.46 49.47 0 27.3 22.16 49.46 49.46 49.46 27.328 0 49.458-22.16 49.458-49.46.001-27.317-22.13-49.47-49.458-49.47z"/></svg>