<svg xmlns="http://www.w3.org/2000/svg" width="300" height="300"><path fill="#fff" d="M22.884 195.866c-11.79 0-21.384 9.594-21.384 21.382s9.593 21.38 21.384 21.38 21.385-9.6 21.385-21.38-9.59-21.382-21.385-21.382zm0 32.89a11.53 11.53 0 0 1-11.513-11.507 11.53 11.53 0 0 1 11.513-11.511c6.346 0 11.514 5.168 11.514 11.51a11.53 11.53 0 0 1-11.514 11.507zm132.083 22.354c-11.79 0-21.38 9.6-21.38 21.38s9.6 21.38 21.38 21.38 21.384-9.6 21.384-21.38-9.6-21.38-21.384-21.38zm0 32.884a11.53 11.53 0 0 1-11.515-11.506c0-6.345 5.168-11.5 11.515-11.5a11.53 11.53 0 0 1 11.514 11.51 11.53 11.53 0 0 1-11.514 11.506zm-21.86-132.254c-13.177 0-23.9 10.72-23.9 23.896 0 13.17 10.725 23.9 23.9 23.9 13.182 0 23.906-10.73 23.906-23.9.001-13.177-10.724-23.896-23.906-23.896zm0 28.06a4.17 4.17 0 0 1-4.161-4.162c0-2.294 1.865-4.16 4.16-4.16s4.166 1.86 4.166 4.16-1.87 4.162-4.166 4.162zm-100.174 9.787L117 60.343c1.485-2.284 4.537-2.93 6.825-1.445s2.937 4.54 1.445 6.825l-84.077 129.24a4.93 4.93 0 0 1-4.139 2.242c-.92 0-1.858-.257-2.683-.798a4.93 4.93 0 0 1-1.449-6.823zm119.21-49.855L275.477 9.22a9.88 9.88 0 0 1 13.955-.396c3.954 3.74 4.128 9.986.387 13.95L166.5 153.284c-1.937 2.057-4.56 3.096-7.17 3.096-2.434 0-4.875-.898-6.782-2.7-3.96-3.74-4.135-9.99-.395-13.95zm144.56 25.69L181.99 259.85c-.925.76-2.033 1.128-3.132 1.128-1.43 0-2.846-.614-3.817-1.8-1.733-2.103-1.427-5.217.674-6.943L290.42 157.8a4.94 4.94 0 0 1 6.958.678c1.727 2.102 1.43 5.212-.673 6.94zm-163.598 48.463c-21.086 0-38.242-17.156-38.242-38.246a37.95 37.95 0 0 1 7.985-23.396c.02-.03.05-.03.063-.06l84.85-117.94a4.94 4.94 0 0 1 6.894-1.128c2.206 1.6 2.716 4.676 1.118 6.9l-85 118.16c-.03.04-.07.05-.1.088l-.014.027a28.21 28.21 0 0 0-5.923 17.362c0 15.642 12.728 28.377 28.373 28.377a28.16 28.16 0 0 0 22.741-11.393c.1-.125.225-.185.333-.3.088-.116.135-.25.242-.348L262.238 92.6c1.985-1.86 5.108-1.763 6.977.2 1.872 1.994 1.765 5.12-.218 6.98l-105.823 99.373c-.02.02-.05.03-.07.04-7.295 9.29-18.136 14.67-29.998 14.67z"/></svg>