<svg xmlns="http://www.w3.org/2000/svg" width="518.761" height="560" viewBox="224.298 0 518.761 560" fill="#28537b"><path d="M483.813 30.162c51.486 0 100.76 19.14 138.662 53.895 37.682 34.563 61.084 81.513 65.788 132.182l.112 1.395.274 1.395c.33 1.97.55 3.746.55 5.443V387.74c0 20.508-17.556 45.612-36.697 52.556-.55.163-53.485 18.268-168.683 18.268-115.226 0-168.163-18.1-168.55-18.2-19.275-7-36.832-32.1-36.832-52.612V224.465c0-1.697.2-3.472.55-5.443l.274-1.395.112-1.394c4.732-50.67 28.084-97.62 65.8-132.183 37.92-34.748 87.166-53.888 138.652-53.888m0-30.162C361.18 0 260.475 93.733 249.342 213.444c-.655 3.584-1.064 7.274-1.064 11.02v163.268c0 33.197 25.514 69.62 56.7 80.938 0 0 55.154 20.07 178.83 20.07s178.853-20.07 178.853-20.07c31.17-11.318 56.655-47.74 56.655-80.938V224.465c0-3.747-.38-7.437-1.042-11.02C707.13 93.733 606.453 0 483.813 0zm-.135 418.634c-86.515 0-124.578-9.8-126.163-10.17-24.662-6.507-43.993-31.556-43.993-57.092V248.937c0-26.606 21.655-48.233 48.26-48.233h244.07c26.577 0 48.232 21.627 48.232 48.233v102.43c0 25.542-19.303 50.585-43.97 57.042-1.64.437-39.923 10.226-126.436 10.226zM361.778 224.817c-13.317 0-24.147 10.83-24.147 24.12v102.43c0 14.33 12.168 30.078 26.03 33.74.33.112 37.218 9.408 120.014 9.408 82.852 0 119.93-9.353 120.3-9.46 13.837-3.6 25.98-19.36 25.98-33.7v-102.43c0-13.3-10.83-24.12-24.12-24.12H361.778zM506.404 343.55c-5.634-5.908 7.957-28.112 30.436-49.492 22.423-21.4 45.226-33.987 50.86-28.057s4.373 34.646-21.274 59.12c-25.654 24.444-54.365 24.332-60.02 18.43zm52.198 14.05c-2.57-2.733 3.662-12.853 13.888-22.585 10.226-9.8 20.62-15.53 23.24-12.796 2.57 2.682 1.972 15.803-9.732 26.958s-24.826 11.104-27.396 8.423z"/><path d="M239.4 414.092c-8.34 0-15.092-6.78-15.092-15.092V244.373a15.092 15.092 0 1 1 30.184 0V399a15.11 15.11 0 0 1-15.092 15.092zm488.578 0c-8.3 0-15.04-6.78-15.04-15.092V244.373c0-8.34 6.726-15.092 15.04-15.092a15.07 15.07 0 0 1 15.092 15.092V399a15.09 15.09 0 0 1-15.092 15.092zM489.94 560c-125.944 0-183.67-20.45-186.077-21.33-10.965-3.993-16.6-16.134-12.605-27.07a21.07 21.07 0 0 1 26.958-12.634c.7.218 54.606 18.8 171.72 18.8 117.275 0 171.147-18.648 171.7-18.8 10.937-3.937 23.02 1.803 26.958 12.74s-1.696 22.97-12.634 26.958c-2.352.886-60.1 21.336-186.02 21.336zm-72.676-422.626c11.647 0 21.1 9.436 21.1 21.112 0 11.648-9.458 21.112-21.1 21.112s-21.112-9.458-21.112-21.112c-.001-11.676 9.463-21.112 21.112-21.112zm-53.542-.028c11.676 0 21.134 9.458 21.134 21.134 0 11.648-9.458 21.112-21.134 21.112-11.648 0-21.112-9.458-21.112-21.112.005-11.67 9.464-21.134 21.112-21.134z"/></svg>