<svg xmlns="http://www.w3.org/2000/svg" width="922.339" height="155.077" viewBox="0 202.461 922.339 155.077" fill="#fff"><path d="M72.37 256.37H55.385v22.154H72.37c8.123 0 13.292-4.43 13.292-11.077.001-7.384-5.17-11.077-13.292-11.077zm155.815 0h-13.292v46.523h13.292c14.03 0 23.63-9.6 23.63-22.893-.001-14.03-9.6-23.63-23.63-23.63zM0 202.46v155.077h307.2V202.46H0zm86.4 116.68l-16.246-25.107h-14.77v25.107H38.4v-78.277h35.446c9.6 0 17.723 2.954 22.892 8.123 4.43 4.43 6.646 10.34 6.646 17.723 0 12.554-6.646 20.677-16.246 24.37l19.2 28.062H86.4zm93.785 0h-59.077v-78.277h58.338v15.508h-41.354v15.508h36.185v15.508h-36.185v16.246h42.092v15.507zm48-.74h-30.277v-77.54h30.277c24.37 0 41.354 16.985 41.354 38.4 0 22.155-16.985 39.14-41.354 39.14zm151.385-77.54h12.554l33.97 77.54h-14.03l-8.123-18.462h-36.185L359.63 318.4H345.6l33.97-77.54zm19.2 47.262l-13.292-31.015-13.292 31.015h26.584zm31.753-7.384c0-22.154 16.246-39.877 39.877-39.877 14.03 0 22.892 5.17 30.276 11.815l-8.86 10.34c-5.907-5.908-12.554-9.6-21.415-9.6-14.77 0-25.108 11.815-25.108 27.323 0 14.77 10.34 27.323 25.108 27.323 9.6 0 15.508-3.692 22.153-9.6l8.86 8.862c-8.123 8.123-16.984 13.292-31.015 13.292-22.9-.737-39.876-17.72-39.876-39.876zM542.03 240.86h12.554l33.97 77.54h-14.03l-8.123-18.462h-36.186l-8.123 18.462h-14.03l33.97-77.54zm19.2 47.262l-13.292-31.015-13.292 31.015h26.584zm39.877-46.522h28.8c24.37 0 40.615 16.246 40.615 38.4 0 21.416-16.985 38.4-40.615 38.4h-28.8v-76.8zm14.032 12.554v52.43h14.77c16.246 0 26.584-11.077 26.584-25.847s-10.338-25.846-26.584-25.846h-14.77v-.738zm71.63-12.554h56.86v12.554h-43.57v19.938h38.4v11.816h-38.4v20.677h44.308V318.4h-57.6v-76.8zm73.845 0h14.03l23.63 36.185 23.63-36.185h14.03v76.8h-13.292v-54.646l-24.37 36.185h-.74l-24.37-36.185V318.4H760.61v-76.8zm117.415 46.523L847.754 241.6H864l21.415 33.97 21.416-33.97h15.508l-30.277 46.523v31.016H878.77v-31.016h-.74z"/></svg>